# xmcd
#
# Track frame offsets:
#	150
#	20528
#	40658
#	61725
#	81750
#	101843
#	124345
#	145628
#	164900
#	182015
#
# Disc length: 2700 seconds
#
# Revision: 0
# Processed by: cddbd v1.5.2PL0 Copyright (c) Steve Scherf et al.
# Submitted via: EasyCDDAExtractor 15.3.0.1
#
DISCID=840a8a0a
DTITLE=Sandra Torres - La Otra
DYEAR=1995
DGENRE=Latin
TTITLE0=Amiga Mia
TTITLE1=Y Ahora Te Vas
TTITLE2=No Vale Quererlo
TTITLE3=La Otra
TTITLE4=La Bullanguera
TTITLE5=Amaneciendo Junto A Ti
TTITLE6=Amor Del Bueno
TTITLE7=Habri Orea (Hoy Lo Vi)
TTITLE8=Amor De Una Noche
TTITLE9=Es El Amor
EXTD=
EXTT0=
EXTT1=
EXTT2=
EXTT3=
EXTT4=
EXTT5=
EXTT6=
EXTT7=
EXTT8=
EXTT9=
PLAYORDER=
